<?xml version="1.0" encoding="UTF-8"?>
<!DOCTYPE svg PUBLIC "-//W3C//DTD SVG 1.1//EN" "http://www.w3.org/Graphics/SVG/1.1/DTD/svg11.dtd">
<!-- Creator: CorelDRAW X7 -->
<svg xmlns="http://www.w3.org/2000/svg" xml:space="preserve" width="518.109mm" height="97.2687mm" version="1.1" shape-rendering="geometricPrecision" text-rendering="geometricPrecision" image-rendering="optimizeQuality" fill-rule="evenodd" clip-rule="evenodd"
viewBox="0 0 53889519 10117113"
 xmlns:xlink="http://www.w3.org/1999/xlink">
 <g id="Layer_x0020_1">
  <metadata id="CorelCorpID_0Corel-Layer"/>
  <path fill="#00A0E3" d="M52216684 1851580l1672835 0 -2029513 4432753 -1757835 0 -2020995 -4432753 1672836 0 1222838 2921157 1239834 -2921157zm-5891875 1226593c156,283266 19824,538606 59515,765321 39619,226725 128954,419490 267852,578182 138939,158722 338715,282059 599473,369877 260758,87942 612288,131856 1054433,131856l31 1360529c-759590,0 -1371877,-66557 -1836748,-199849 -464799,-133208 -824878,-334450 -1079916,-603727 -255027,-269277 -426605,-603727 -514474,-1003394 -87818,-399655 -131773,-865920 -131773,-1398795l0 -2506658 1580639 -571161 624 1851226 1416987 0 0 1214320 -1416643 0 0 12273zm-3978949 565399c1019807,0 1846505,826740 1846505,1846629 41,436601 -151639,837692 -404961,1153826l-1108528 -1111888c-243992,-244699 -655817,-74275 -655578,271253l1040 1505470c-866617,-152180 -1525149,-908483 -1525149,-1818661 84,-1019889 826740,-1846629 1846671,-1846629z"/>
  <path fill="#FEFEFE" d="M24540449 5008407c107642,0 239457,-2829 395360,-8487 155893,-5690 320274,-12700 493132,-21218l254683 -12503 1016603 1105118c-232456,85071 -537170,158763 -914099,221108 -376929,62376 -792238,93549 -1245720,93549 -612215,-32 -1128084,-29779 -1547606,-89295 -419491,-59557 -759672,-172899 -1020430,-340098 -260769,-167251 -447834,-398304 -561218,-693032 -113342,-294833 -170028,-677462 -170028,-1147939 0,-470488 56686,-853190 170028,-1147950 113425,-294842 300449,-525780 561218,-692990 260758,-167283 600939,-280697 1020430,-340182 419564,-59515 935318,-89252 1547606,-89252 385562,0 782284,22653 1190427,67992 408216,45308 785187,93559 1130985,144556 396796,62387 790793,130379 1181899,204144l84 4022010 -1148023 0 -433553 -1359916 -73 -1624698c-158722,-5732 -327398,-14250 -505997,-25556 -178475,-11390 -354276,-21219 -527216,-29737 -172775,-8488 -337270,-15612 -493132,-21260 -155862,-5700 -287718,-8488 -395401,-8488 -323072,-31 -589634,9840 -799322,29748 -209730,19783 -375577,60940 -497438,123285 -121819,62345 -205507,153075 -250846,272075 -45266,119031 -68076,277795 -68076,476219 73,198372 22727,355710 68076,471954 45422,116130 128944,205466 250846,267810 121902,62376 287677,103503 497438,123328 209688,19793 476177,29737 799363,29705zm-7185347 0c323186,0 589602,-9881 799321,-29705 209772,-19867 374184,-60952 493225,-123328 119032,-62386 202668,-151639 250846,-267810 48168,-116244 72257,-273582 72257,-471954 32,-198466 -24130,-357146 -72257,-476219 -48137,-119000 -131814,-209688 -250846,-272075 -119000,-62345 -283495,-103461 -493225,-123285 -209719,-19950 -476177,-29748 -799321,-29748 -113342,-31 -247976,2788 -403879,8488 -155893,5606 -321709,12772 -497438,21260 -175686,8477 -352881,18389 -531428,29737 -178516,11306 -347275,19824 -505956,25556l0 1624085c158681,11306 327357,21260 505956,29737 178547,8518 355742,17037 531428,25556 175729,8518 341503,15570 497438,21218 155935,5658 290537,8519 403879,8487zm0 -3163171c612370,0 1126689,29778 1543392,89252 416693,59443 755367,172941 1016125,340182 260810,167168 447834,398189 561217,692990 113384,294718 170070,677462 170070,1147950 0,470446 -56728,853138 -170070,1147939 -113300,294687 -300449,525781 -561217,693032 -260717,167199 -599505,280583 -1016125,340098 -416662,59485 -931095,89295 -1543392,89295 -459099,-32 -875834,-31173 -1249975,-93549 -374069,-62345 -680208,-136037 -918281,-221067l-195594 212580 -119032 0 -1028907 0 0 -4022010 0 -1687428 1588846 -573574 -385 -926 1622 0 0 2083298c181418,-45339 376971,-85030 586691,-119031 181500,-28385 385489,-55262 612287,-80776 226725,-25514 467700,-38255 722728,-38255zm-7270211 4540706c-430881,0 -809318,-29747 -1135250,-89263 -325890,-59557 -598038,-172899 -816286,-340098 -218238,-167251 -382733,-398304 -493215,-693032 -110471,-294801 -165805,-677462 -165805,-1147939l0 -2270614 1590156 0 0 2270614c0,175603 19794,320315 59443,433657 39764,113384 100684,204072 182811,272064 82253,68076 187108,116244 314626,144629 127634,28270 282019,42479 463436,42479 107809,-32 206901,-1425 297631,-4255 90729,-2829 185672,-8518 284847,-16964 99248,-8550 206890,-17037 323145,-25556 116285,-8518 256535,-21260 420915,-38255l42 -2506087 1581523 -572326 0 4243316c-215377,28385 -430828,60993 -646247,97855 -215378,36789 -440709,69428 -675984,97771 -235244,28270 -481878,52401 -739734,72257 -257929,19794 -539989,29779 -846054,29747zm-3290805 -4336676c0,368452 -56697,678896 -170112,931136 -113384,252198 -291931,469084 -535693,650501 232446,175812 408133,391106 527174,646258 119146,255027 178589,566866 178589,935318l42 1071459 -1675166 0 0 -1071459c0,-198424 -24120,-357105 -72299,-476177 -48084,-119042 -131772,-209689 -250845,-272075 -118990,-62376 -283454,-102036 -493173,-119073 -209730,-16954 -476292,-24630 -799322,-25483l-1921716 -5149 0 1969416 -1581565 0 0 -4022010 0 -2261928 1581565 0 0 3120808 1921788 -115c323031,0 589561,-18431 799250,-55261 209761,-36748 374141,-97772 493173,-182812 119156,-85030 202677,-195584 250845,-331621 9611,-27033 18161,-55137 25837,-84645l1720619 -621118 1009 0 0 204030zm29302254 2959141c107725,0 239508,-2829 395360,-8487 155904,-5690 320326,-12700 493215,-21218l254611 -12503 1016675 1105118c-232456,85071 -537211,158763 -914140,221108 -376929,62376 -792239,93549 -1245763,93549 -612204,-32 -1128072,-29779 -1547605,-89295 -419480,-59557 -759589,-172899 -1020347,-340098 -260727,-167251 -447876,-398304 -561259,-693032 -113342,-294833 -170071,-677462 -170071,-1147939 0,-470488 56697,-853190 170071,-1147950 113425,-294842 300459,-525780 561259,-692990 260758,-167283 600867,-280697 1020347,-340182 419564,-59515 935318,-89252 1547605,-89252 385490,0 782327,22653 1190511,67992 408133,45308 785104,93559 1130902,144556 396910,62387 790804,130379 1181982,204144l0 4022010 -1147939 0 -433584 -1359916 -83 -1624698c-158764,-5732 -327399,-14250 -506029,-25556 -178474,-11390 -354244,-21219 -527143,-29737 -172858,-8488 -337311,-15612 -493215,-21260 -155820,-5700 -287666,-8488 -395402,-8488 -323061,-31 -589550,9840 -799322,29748 -209677,19783 -375493,60940 -497437,123285 -121819,62345 -205497,153075 -250846,272075 -45339,119031 -67992,277795 -67992,476219 72,198372 22653,355710 67992,471954 45422,116130 128954,205466 250846,267810 121985,62376 287718,103503 497437,123328 209772,19793 476178,29737 799364,29705zm-5790651 -1930234c84,283266 19711,538606 59402,765321 39732,226725 128985,419490 267893,578182 138898,158722 338663,282059 599432,369877 260758,87942 612287,131856 1054463,131856l0 1360529c-759589,0 -1371877,-66557 -1836706,-199849 -464841,-133208 -824889,-334450 -1079916,-603727 -255068,-269277 -426646,-603727 -514474,-1003394 -87859,-399655 -131815,-865920 -131815,-1398795l0 -2506658 1580640 -571161 1081 3077819z"/>
  <path fill="#FEFEFE" d="M44548970 9639761l-641411 -1194485c-10224,-16964 -16652,-36830 -17734,-58090 -3412,-68815 49603,-127238 118303,-130535l649847 -34158c152148,-8092 219673,-183696 112145,-291618l-2241947 -2248574c-110711,-111022 -292285,-35894 -292170,120935l2319 3306906c83,157027 182229,231843 292669,120165l572212 -578796 156 73c8446,-8550 18316,-16070 29550,-22030 60556,-32493 135995,-9798 168478,50727l679168 1264817c72600,135299 190831,182541 303008,170102 46004,-5107 91156,-19471 132157,-41626 40939,-21915 77874,-51580 107611,-87235 72413,-86631 98250,-211238 25639,-346578z"/>
 </g>
</svg>
